<svg width="32" height="34" fill="none" xmlns="http://www.w3.org/2000/svg"><path d="M31.689 24.71c-.346-.446-.965-.687-1.523-.518a16.31 16.31 0 0 1-2.348.522c-.638.076-1.279.116-1.921.117a16.579 16.579 0 0 1-1.941-.12 15.992 15.992 0 0 1-3.683-1.002 16.114 16.114 0 0 1-3.218-1.877 16.123 16.123 0 0 1-2.631-2.625 16.079 16.079 0 0 1-1.88-3.213 15.91 15.91 0 0 1-1.003-3.674c-.156-1.292-.155-2.6.001-3.892a15.97 15.97 0 0 1 1.014-3.69c.394-.895.867-1.75 1.416-2.56l.146-.345.052-.384c0-.322-.116-.625-.311-.876-.344-.445-.966-.69-1.523-.519-1.06.324-2.094.751-3.075 1.264-.975.51-1.875 1.128-2.74 1.807a17.09 17.09 0 0 0-4.079 4.659 16.902 16.902 0 0 0-2.184 5.919 17.985 17.985 0 0 0-.25 3.434c.032 1.1.17 2.203.404 3.277a16.98 16.98 0 0 0 2.312 5.565 18.2 18.2 0 0 0 1.927 2.485c.714.772 1.508 1.452 2.344 2.09 1.595 1.214 3.433 2.124 5.351 2.707 2.037.619 4.226.858 6.348.685a17.69 17.69 0 0 0 6.858-1.985 17.062 17.062 0 0 0 5.13-4.162c.394-.477.771-.97 1.12-1.481l.146-.346.052-.385c0-.322-.116-.625-.311-.877Zm-8.69 5.275a16.11 16.11 0 0 1-3.677 1.001c-1.29.156-2.598.156-3.889 0a16.054 16.054 0 0 1-3.682-1.001 16.12 16.12 0 0 1-3.219-1.877 16.126 16.126 0 0 1-2.63-2.625 16.074 16.074 0 0 1-1.88-3.213 15.978 15.978 0 0 1-1.005-3.676 16.162 16.162 0 0 1 0-3.879c.187-1.263.525-2.5 1.007-3.681A15.995 15.995 0 0 1 5.9 7.829a16.153 16.153 0 0 1 2.625-2.62c.333-.251.676-.489 1.027-.713a.388.388 0 0 1-.013.034c-.506 1.379-.798 2.819-.942 4.28a16.06 16.06 0 0 0 .058 3.647c.155 1.193.391 2.36.786 3.5a17.73 17.73 0 0 0 3.498 5.976 17.08 17.08 0 0 0 5.227 3.981 17.744 17.744 0 0 0 7.731 1.811c.272 0 .543-.01.816-.023-.16.136-.32.27-.484.4-1 .75-2.085 1.383-3.23 1.883Z" fill="#E6E6E6"/></svg>