<svg width="33" height="33" fill="none" xmlns="http://www.w3.org/2000/svg"><path d="M24.172 16.5c-.004-1.536-.466-3.102-1.361-4.358a8.621 8.621 0 0 0-.805-.986 8.43 8.43 0 0 0-.962-.83c-.602-.46-1.274-.795-1.982-1.057a7.513 7.513 0 0 0-2.313-.438 7.61 7.61 0 0 0-2.344.285c-1.443.41-2.8 1.263-3.755 2.424a8.61 8.61 0 0 0-.737 1.02 8.54 8.54 0 0 0-.558 1.156c-.298.722-.448 1.492-.508 2.269a7.594 7.594 0 0 0 .204 2.36c.178.736.48 1.46.872 2.108.773 1.276 1.938 2.364 3.303 2.982.394.178.796.34 1.212.457.422.117.852.182 1.287.234.794.095 1.604.032 2.386-.126a7.518 7.518 0 0 0 2.126-.798 7.608 7.608 0 0 0 1.793-1.384c1.043-1.092 1.796-2.514 2.025-4.013a8.79 8.79 0 0 0 .117-1.305Zm-2.467.703a6.541 6.541 0 0 1-.364 1.335 6.5 6.5 0 0 1-.659 1.136c-.298.372-.636.71-1.008 1.008a6.621 6.621 0 0 1-1.136.66c-.43.167-.877.289-1.334.363-.468.05-.94.05-1.409 0a6.526 6.526 0 0 1-1.333-.364 6.5 6.5 0 0 1-1.136-.659 6.596 6.596 0 0 1-1.008-1.008 6.618 6.618 0 0 1-.66-1.136 6.53 6.53 0 0 1-.363-1.334c-.05-.468-.05-.94 0-1.409.074-.456.196-.902.364-1.333.18-.4.401-.78.659-1.136.298-.372.636-.71 1.008-1.008a6.66 6.66 0 0 1 1.136-.66c.43-.167.877-.289 1.333-.363.47-.05.94-.05 1.41 0 .456.074.902.196 1.333.364.4.18.78.401 1.136.659.372.298.71.636 1.008 1.008.258.356.477.736.66 1.136.167.432.289.878.363 1.335a6.54 6.54 0 0 1 0 1.406ZM16.5 7.381c.658-.03 1.215-.533 1.215-1.215V1.215c0-.312-.136-.64-.356-.86-.21-.21-.557-.37-.86-.355-.657.03-1.214.533-1.214 1.215v4.951c0 .312.136.639.355.86.211.21.557.37.86.355Zm0 18.237c-.658.03-1.215.533-1.215 1.215v4.951c0 .312.136.639.355.86.211.21.557.37.86.355.658-.03 1.215-.533 1.215-1.215v-4.951c0-.312-.136-.64-.356-.86-.211-.21-.557-.368-.86-.355ZM6.013 7.73l1.89 1.89.43.431c.221.22.548.355.86.355.298 0 .654-.132.86-.355.212-.232.37-.535.355-.86a1.27 1.27 0 0 0-.356-.859L8.873 7.153l-1.89-1.89-.43-.43a1.252 1.252 0 0 0-.86-.356c-.298 0-.654.133-.86.355-.212.232-.37.536-.355.86.014.322.124.626.355.859l1.18 1.18Zm20.973 17.539-1.89-1.89-.43-.431a1.252 1.252 0 0 0-.86-.355c-.298 0-.654.132-.86.355-.212.232-.37.535-.355.86.014.321.124.626.356.858l1.179 1.18 1.89 1.89.43.43c.221.221.548.356.86.356.298 0 .654-.133.86-.355.212-.232.37-.536.355-.86a1.27 1.27 0 0 0-.355-.859l-1.18-1.18Zm-20.82-7.554c.312 0 .639-.136.86-.356.21-.21.37-.556.355-.859-.03-.658-.534-1.215-1.215-1.215H1.215c-.312 0-.64.136-.86.356-.21.21-.37.556-.355.859.03.658.533 1.215 1.215 1.215h4.951Zm25.619-2.43h-4.953c-.312 0-.639.136-.86.356-.21.21-.37.556-.355.859.03.658.534 1.215 1.215 1.215h4.952c.312 0 .64-.136.86-.356.21-.21.37-.556.355-.859-.03-.658-.533-1.215-1.215-1.215ZM9.193 22.591a1.27 1.27 0 0 0-.86.356l-1.179 1.179-1.89 1.89-.43.431c-.221.22-.356.548-.356.86 0 .297.133.653.355.859.232.212.536.37.86.355a1.27 1.27 0 0 0 .859-.355l1.18-1.18 1.89-1.89.43-.43c.22-.221.356-.548.356-.86 0-.297-.133-.654-.356-.86-.232-.21-.535-.369-.86-.355Zm14.613-12.183a1.27 1.27 0 0 0 .86-.356l1.178-1.179 1.89-1.89.431-.431c.221-.22.356-.548.356-.86 0-.297-.133-.653-.355-.859-.232-.212-.536-.37-.86-.355a1.27 1.27 0 0 0-.86.355l-1.178 1.18-1.89 1.89-.431.43a1.253 1.253 0 0 0-.356.86c0 .297.133.654.356.86.231.212.536.37.859.354Z" fill="#1D1D1E"/></svg>